<svg width="84" height="35" viewBox="0 0 94 45" fill="none" xmlns="http://www.w3.org/2000/svg">
<g clip-path="url(#clip0_242_443)">
<rect x="4" y="4.5" width="79" height="36" rx="8" fill="#5ED1F7"/>
<path d="M26.32 19.92H28.54V15.2C28.54 14.7467 28.5067 14.4133 28.44 14.2C28.3733 13.9867 28.1467 13.8267 27.76 13.72L28.2 12.84L32.54 13.86C32.3133 13.9667 32.1533 14.1133 32.06 14.3C31.98 14.4867 31.94 14.7533 31.94 15.1V30.1H28.54V21.24H26.32V23.5C26.32 24.7267 25.9733 25.66 25.28 26.3C24.5867 26.94 23.4467 27.26 21.86 27.26C20.2733 27.26 19.1333 26.94 18.44 26.3C17.7467 25.66 17.4 24.7267 17.4 23.5V18.34C17.4 17.1133 17.7467 16.18 18.44 15.54C19.1333 14.9 20.2733 14.58 21.86 14.58C23.4467 14.58 24.5867 14.9 25.28 15.54C25.9733 16.18 26.32 17.1133 26.32 18.34V19.92ZM20.8 23.52C20.8 24.0267 20.8133 24.44 20.84 24.76C20.8667 25.0667 20.92 25.3067 21 25.48C21.08 25.6533 21.1867 25.7733 21.32 25.84C21.4667 25.9067 21.6467 25.94 21.86 25.94C22.0733 25.94 22.2467 25.9067 22.38 25.84C22.5267 25.7733 22.64 25.6533 22.72 25.48C22.8 25.3067 22.8533 25.0667 22.88 24.76C22.9067 24.44 22.92 24.0267 22.92 23.52V18.32C22.92 17.8267 22.9067 17.42 22.88 17.1C22.8533 16.78 22.8 16.5333 22.72 16.36C22.64 16.1867 22.5267 16.0667 22.38 16C22.2467 15.9333 22.0733 15.9 21.86 15.9C21.6467 15.9 21.4667 15.9333 21.32 16C21.1867 16.0667 21.08 16.1867 21 16.36C20.92 16.5333 20.8667 16.78 20.84 17.1C20.8133 17.42 20.8 17.8267 20.8 18.32V23.52ZM46.0478 15.2C46.0478 14.7467 46.0145 14.4133 45.9478 14.2C45.8811 13.9867 45.6545 13.8267 45.2678 13.72L45.7078 12.84L50.0478 13.86C49.8211 13.9667 49.6611 14.1133 49.5678 14.3C49.4878 14.4867 49.4478 14.7533 49.4478 15.1V19.92H51.7078V21.24H49.4478V30.1H46.0478V15.2ZM42.1278 16.6C42.0611 17.84 41.8878 18.9467 41.6078 19.92C41.3278 20.88 40.9611 21.7467 40.5078 22.52C41.0145 22.52 41.4278 22.6133 41.7478 22.8C42.0678 22.9733 42.3345 23.1933 42.5478 23.46C42.7611 23.7133 42.9345 23.9933 43.0678 24.3C43.2011 24.5933 43.3345 24.8733 43.4678 25.14C43.6145 25.4067 43.7745 25.6333 43.9478 25.82C44.1211 26.0067 44.3478 26.1067 44.6278 26.12C44.7745 26.1333 44.9278 26.1267 45.0878 26.1C45.2478 26.0733 45.3811 26.0333 45.4878 25.98L45.7278 26.92C45.5011 27.0267 45.2411 27.12 44.9478 27.2C44.6678 27.28 44.3078 27.3333 43.8678 27.36C43.4278 27.3867 42.9878 27.3333 42.5478 27.2C42.1078 27.0667 41.7345 26.7733 41.4278 26.32C41.2011 25.9867 41.0211 25.6733 40.8878 25.38C40.7545 25.0733 40.6345 24.8067 40.5278 24.58C40.4211 24.34 40.3078 24.1467 40.1878 24C40.0678 23.84 39.9078 23.7333 39.7078 23.68C39.0278 24.56 38.2345 25.2933 37.3278 25.88C36.4345 26.4667 35.4678 26.96 34.4278 27.36L34.0678 26.44C34.8278 25.9733 35.4811 25.4267 36.0278 24.8C36.5745 24.16 37.0211 23.44 37.3678 22.64C37.7278 21.8267 38.0011 20.9267 38.1878 19.94C38.3745 18.9533 38.4878 17.8667 38.5278 16.68C38.5411 16.2933 38.4878 15.9667 38.3678 15.7C38.2611 15.4333 38.0545 15.2533 37.7478 15.16L38.1878 14.28L43.0278 15.38C42.7211 15.4333 42.5011 15.56 42.3678 15.76C42.2345 15.96 42.1545 16.24 42.1278 16.6ZM52.6156 15.78H56.5356V15.48C56.5356 15.0267 56.5023 14.6933 56.4356 14.48C56.369 14.2667 56.1423 14.1067 55.7556 14L56.1956 13.12L60.5356 14.12C60.309 14.2267 60.149 14.3733 60.0556 14.56C59.9756 14.7467 59.9356 15.0133 59.9356 15.36V15.78H63.8556V17.1H59.9556C59.8223 18.2333 59.6156 19.24 59.3356 20.12C59.069 21 58.7356 21.8 58.3356 22.52H58.4756C58.9956 22.52 59.4156 22.6067 59.7356 22.78C60.069 22.9533 60.3423 23.1733 60.5556 23.44C60.769 23.6933 60.9423 23.9733 61.0756 24.28C61.2223 24.5867 61.3623 24.8733 61.4956 25.14C61.629 25.4067 61.7823 25.6333 61.9556 25.82C62.129 26.0067 62.3556 26.1067 62.6356 26.12C62.7823 26.1333 62.9356 26.1267 63.0956 26.1C63.2556 26.0733 63.389 26.0333 63.4956 25.98L63.7356 26.92C63.509 27.0267 63.249 27.12 62.9556 27.2C62.6756 27.28 62.3156 27.3333 61.8756 27.36C61.4356 27.3867 60.9956 27.3333 60.5556 27.2C60.1156 27.0667 59.7423 26.7733 59.4356 26.32C59.1956 25.96 59.009 25.6267 58.8756 25.32C58.7423 25.0133 58.6156 24.74 58.4956 24.5C58.389 24.26 58.269 24.0667 58.1356 23.92C58.0023 23.7733 57.8223 23.6867 57.5956 23.66C56.9156 24.5667 56.1356 25.3133 55.2556 25.9C54.3756 26.4867 53.4356 26.9733 52.4356 27.36L52.0756 26.44C53.4356 25.6267 54.4623 24.46 55.1556 22.94C55.849 21.4067 56.269 19.46 56.4156 17.1H52.6156V15.78ZM60.9556 20.02H64.6556V15.2C64.6556 14.7333 64.6423 14.4067 64.6156 14.22C64.589 14.02 64.4623 13.8867 64.2356 13.82L64.6756 12.94L68.5556 13.86C68.329 13.9667 68.169 14.1133 68.0756 14.3C67.9956 14.4867 67.9556 14.7533 67.9556 15.1V30.1H64.6556V21.34H60.9556V20.02Z" fill="white"/>
<path d="M80.2679 25.5C81.0377 24.1667 82.9623 24.1667 83.7321 25.5L90.6603 37.5C91.4301 38.8333 90.4678 40.5 88.9282 40.5H75.0718C73.5322 40.5 72.5699 38.8333 73.3397 37.5L80.2679 25.5Z" fill="#5ED1F7"/>
</g>
<defs>
<clipPath id="clip0_242_443">
<rect width="94" height="44" fill="white" transform="translate(0 0.5)"/>
</clipPath>
</defs>
</svg>
